<svg width="151" height="196" viewBox="0 0 151 196" fill="none" xmlns="http://www.w3.org/2000/svg">
<path d="M51.6172 150C52.3984 150 53.0755 150.286 53.6484 150.859C54.2214 151.432 54.5078 152.135 54.5078 152.969V192.422C54.5078 193.203 54.2214 193.88 53.6484 194.453C53.0755 195.026 52.3984 195.312 51.6172 195.312C50.8359 195.312 50.1589 195.026 49.5859 194.453C49.013 193.88 48.7266 193.203 48.7266 192.422V175.469H24.4297V192.422C24.4297 193.203 24.1432 193.88 23.5703 194.453C22.9974 195.026 22.2943 195.312 21.4609 195.312C20.6797 195.312 20.0026 195.026 19.4297 194.453C18.8568 193.88 18.5703 193.203 18.5703 192.422V152.969C18.5703 152.188 18.8568 151.51 19.4297 150.938C20.0026 150.312 20.6797 150 21.4609 150C22.2422 150 22.9193 150.286 23.4922 150.859C24.1172 151.432 24.4297 152.135 24.4297 152.969V170H48.7266V152.969C48.7266 152.188 49.013 151.51 49.5859 150.938C50.1589 150.312 50.8359 150 51.6172 150ZM61.9922 165C61.9922 164.115 62.2786 163.411 62.8516 162.891C63.4245 162.318 64.1276 162.031 64.9609 162.031C65.7943 162.031 66.4714 162.318 66.9922 162.891C67.513 163.411 67.7734 164.115 67.7734 165V192.422C67.7734 193.203 67.513 193.88 66.9922 194.453C66.4714 195.026 65.7943 195.312 64.9609 195.312C64.1276 195.312 63.4245 195.026 62.8516 194.453C62.2786 193.88 61.9922 193.203 61.9922 192.422V165ZM68.3984 152.422C68.3984 153.359 68.0859 154.141 67.4609 154.766C66.8359 155.391 66.0547 155.703 65.1172 155.703H64.7266C63.7891 155.703 63.0078 155.391 62.3828 154.766C61.8099 154.141 61.5234 153.359 61.5234 152.422V152.188C61.5234 151.25 61.8359 150.469 62.4609 149.844C63.0859 149.219 63.8411 148.906 64.7266 148.906H65.1172C66.0547 148.906 66.8359 149.219 67.4609 149.844C68.0859 150.469 68.3984 151.25 68.3984 152.188V152.422ZM88.1484 174.453C88.8776 174.453 89.5026 174.714 90.0234 175.234C90.5443 175.755 90.8047 176.354 90.8047 177.031C90.8047 177.76 90.5443 178.385 90.0234 178.906C89.5026 179.375 88.8776 179.609 88.1484 179.609H76.1172C75.388 179.609 74.763 179.375 74.2422 178.906C73.7734 178.438 73.5391 177.812 73.5391 177.031C73.5391 176.302 73.7734 175.703 74.2422 175.234C74.7109 174.714 75.3359 174.453 76.1172 174.453H88.1484ZM117.82 190.156C121.831 190.156 125.581 189.219 129.07 187.344V175.781H118.445C117.716 175.781 117.091 175.521 116.57 175C116.102 174.479 115.867 173.854 115.867 173.125C115.867 172.396 116.128 171.771 116.648 171.25C117.169 170.729 117.768 170.469 118.445 170.469H131.102C131.935 170.469 132.638 170.781 133.211 171.406C133.836 171.979 134.148 172.708 134.148 173.594V188.047C134.148 188.984 133.914 189.818 133.445 190.547C133.029 191.224 132.456 191.719 131.727 192.031C126.935 194.427 122.065 195.625 117.117 195.625C110.398 195.625 104.982 193.49 100.867 189.219C96.7526 184.948 94.6693 179.453 94.6172 172.734C94.6172 165.964 96.7786 160.365 101.102 155.938C105.216 151.771 110.477 149.688 116.883 149.688C120.529 149.688 123.602 150.13 126.102 151.016C128.602 151.901 130.841 152.995 132.82 154.297C133.654 154.766 134.07 155.443 134.07 156.328C134.07 157.214 133.836 157.917 133.367 158.438C132.951 158.958 132.404 159.219 131.727 159.219C131.049 159.219 130.503 159.115 130.086 158.906C125.971 156.51 121.779 155.312 117.508 155.312C112.56 155.312 108.497 156.823 105.32 159.844C102.039 163.021 100.424 167.318 100.477 172.734C100.477 177.786 101.987 181.927 105.008 185.156C108.185 188.49 112.456 190.156 117.82 190.156Z" fill="#F5F5F5"/>
<circle cx="75" cy="120" r="5.5" fill="#ACD9CF" stroke="white" stroke-width="5"/>
<circle cx="133" cy="64" r="5.5" fill="#ACD9CF" stroke="white" stroke-width="5"/>
<circle cx="17" cy="64" r="5.5" fill="#ACD9CF" stroke="white" stroke-width="5"/>
<circle cx="75" cy="8" r="8" fill="#ACD9CF"/>
<circle cx="35" cy="24" r="8" fill="#ACD9CF"/>
<circle cx="35" cy="104" r="8" fill="#ACD9CF"/>
<circle cx="115" cy="24" r="8" fill="#ACD9CF"/>
<circle cx="115" cy="104" r="8" fill="#ACD9CF"/>
<circle cx="75" cy="64" r="8" fill="#ACD9CF"/>
<circle cx="39" cy="49" r="4" fill="white"/>
<circle cx="111" cy="49" r="4" fill="white"/>
<circle cx="60" cy="28" r="4" fill="white"/>
<circle cx="39" cy="79" r="4" fill="white"/>
<circle cx="111" cy="79" r="4" fill="white"/>
<circle cx="60" cy="100" r="4" fill="white"/>
<circle cx="90" cy="100" r="4" fill="white"/>
<circle cx="90" cy="28" r="4" fill="white"/>
</svg>
