<svg width="20" height="20" viewBox="0 0 20 20" fill="none" xmlns="http://www.w3.org/2000/svg">
  <path d="M5.36178 14.8052L0.254245 9.4286C0.184874 9.35824 0.129337 9.27364 0.0897858 9.17935C0.050234 9.08505 0.0280491 8.98185 0.0249258 8.87532C0.0218025 8.76879 0.038166 8.66318 0.0730997 8.56475C0.108033 8.46631 0.162402 8.37613 0.232371 8.29881L5.36178 2.65158C5.55622 2.44192 5.81716 2.32483 6.09454 2.32438C6.37192 2.32393 6.63286 2.44102 6.8273 2.65068C7.02174 2.86034 7.13608 3.1368 7.13608 3.42588C7.13608 3.71496 7.02174 3.99142 6.8273 4.20108L3.12076 7.84882L13.6426 7.84882C13.8824 7.84882 14.1118 7.94052 14.2847 8.11303C14.4576 8.28555 14.5574 8.5144 14.5588 8.75191C14.5603 8.98942 14.4646 9.2178 14.2965 9.39169C14.1284 9.56557 13.903 9.66487 13.6599 9.66627L3.12076 9.66627L6.82823 13.314C7.02267 13.5236 7.13701 13.8001 7.13701 14.0892C7.13701 14.3783 7.02267 14.6547 6.82823 14.8644C6.63379 15.074 6.37285 15.1911 6.09547 15.1916C5.81809 15.1921 5.55715 15.0749 5.36271 14.8653L5.36178 14.8052Z" fill="black"/>
</svg>